<svg width="395" height="85" viewBox="0 0 395 85" fill="none" xmlns="http://www.w3.org/2000/svg">
<g clip-path="url(#clip0_8_229)">
<path d="M42.4626 8.49998C41.9603 8.49743 41.684 8.83998 41.6067 9.24118L39.5301 16.2469C34.586 16.801 29.9004 18.7463 26.0177 21.8569C23.8604 20.6856 21.7039 19.5083 19.5449 18.3438C19.1454 18.1288 18.7952 18.1449 18.4722 18.4705C18.1484 18.796 18.2402 19.2754 18.4229 19.6205L21.8816 25.9913C18.7552 29.8789 16.7994 34.5758 16.2427 39.5335C13.8848 40.233 11.5235 40.9266 9.1681 41.6304C8.7346 41.7605 8.49915 42.0197 8.5 42.4787C8.5017 42.9377 8.9046 43.2123 9.2786 43.327L16.2393 45.3891C16.7801 50.3579 18.7258 55.0695 21.8484 58.9721C20.6712 61.1413 19.4871 63.3105 18.3158 65.4814C18.1008 65.8809 18.1169 66.2294 18.4433 66.5533C18.768 66.8763 19.2474 66.7862 19.5925 66.6043L25.999 63.1269C29.8854 66.2481 34.5791 68.2002 39.5327 68.7556C40.2314 71.1144 40.9267 73.4765 41.6305 75.8319C41.7605 76.2654 42.0198 76.5008 42.4788 76.5C42.9378 76.4983 43.2123 76.0954 43.3271 75.7214L45.3892 68.7607C50.3691 68.218 55.0898 66.262 58.9943 63.1235L65.4271 66.617C65.8937 66.855 66.2091 66.8967 66.5661 66.5431C66.9239 66.1895 66.8772 65.7509 66.6485 65.4126L63.1465 58.9585C66.2623 55.0598 68.2053 50.3554 68.7488 45.3942L75.7469 43.3202C76.245 43.1587 76.4975 42.9658 76.5 42.4626C76.5025 41.9602 76.16 41.684 75.7588 41.6066L68.7293 39.5233C68.1741 34.575 66.2268 29.8857 63.1133 25.9998L66.5899 19.5984C66.827 19.1309 66.8686 18.8164 66.515 18.4586C66.4418 18.3798 66.3537 18.3163 66.2558 18.2718C66.1579 18.2273 66.0522 18.2027 65.9447 18.1993C65.7441 18.1999 65.5485 18.2623 65.3845 18.3778L58.9705 21.8603C55.0717 18.7294 50.3598 16.7772 45.3892 16.2333L43.3203 9.25308C43.1588 8.75498 42.9658 8.50253 42.4626 8.49998ZM42.4618 12.0496V38.4336C41.7744 38.4404 41.1 38.6215 40.5017 38.9597L36.2695 33.5979L40.7014 18.1764L41.2964 16.1015L42.4618 12.0496ZM46.019 18.36C50.0124 18.9375 53.7987 20.502 57.035 22.9117L48.7076 27.432L46.019 18.36ZM38.8986 18.3812L36.2262 27.3972C33.4713 25.8995 30.7148 24.4077 27.9591 22.9109C31.1757 20.521 34.934 18.9648 38.8986 18.3812ZM20.9525 20.9525L34.2142 34.187L34.2074 34.2065C32.5185 34.7072 30.8312 35.2095 29.1414 35.7093L24.0516 26.5353L23.0121 24.661L20.9525 20.9525ZM64.0033 20.9678L61.1618 23.8102L59.7397 25.2314L50.7705 34.2014L50.7068 34.1827L49.2159 29.1541L58.4511 24.0414L59.5629 23.4277L60.3194 23.0078L64.0033 20.9678ZM62.067 27.9276C64.4695 31.1511 66.0336 34.921 66.6188 38.8985L57.568 36.2159L62.067 27.9276ZM22.9339 27.9344L27.4304 36.2168C24.4095 37.1093 21.392 38.0086 18.3719 38.9028C18.96 34.9251 20.5276 31.1559 22.9339 27.9344ZM51.3171 36.2465L66.8228 40.7005L68.8738 41.2904L72.9495 42.4617L46.5656 42.4617C46.5588 41.7671 46.3741 41.0859 46.0292 40.4829L51.3171 36.2465ZM38.4345 42.4617L38.4328 42.5C38.4328 43.1783 38.6028 43.8455 38.9266 44.4414L33.575 48.6548L28.2702 47.135L18.1722 44.245V44.2433L16.0999 43.65L12.0088 42.4787L38.4345 42.4617ZM66.6409 46.0181C66.0638 50.008 64.5015 53.7912 62.0951 57.0256L57.579 48.7041L66.6409 46.0181ZM18.3694 46.0207L27.4193 48.7024C25.9106 51.4777 24.4086 54.2546 22.9007 57.0299C20.4995 53.7933 18.9422 50.0097 18.3694 46.0207ZM44.4618 46.0606L48.6778 51.34L47.1453 56.6916L44.2425 66.827L43.6492 68.9001L42.4779 72.9912L42.4609 46.5647C43.1766 46.5664 43.9195 46.3794 44.4618 46.0606ZM55.8544 49.2141L60.9629 58.4451L61.9982 60.3143L64.056 64.0322L61.1881 61.1634L59.7661 59.7422L50.7501 50.7263L55.8544 49.2141ZM34.2006 50.7713C34.7038 52.4713 35.2096 54.1679 35.7119 55.8679L26.5438 60.9543L24.6679 61.9947L20.9236 64.073L34.2006 50.7713ZM48.7135 57.5424L57.0605 62.0755C53.8171 64.4896 50.022 66.0551 46.0199 66.6298L48.7135 57.5424ZM36.2185 57.5781C37.111 60.5956 38.0086 63.6106 38.902 66.6272C34.9278 66.0395 31.1617 64.474 27.9421 62.0712L36.2185 57.5781Z" fill="#EC8536"/>
<path d="M39.1 6.8V0L40.7839 0L44.2918 4.54155V0L45.9 0V6.8H44.1635L40.7082 2.36555V6.8L39.1 6.8ZM39.1 82.745L40.7431 82.62C40.8417 83.0529 41.0411 83.3711 41.3415 83.5746C41.6458 83.7774 42.0546 83.8789 42.568 83.8789C43.112 83.8789 43.5209 83.7893 43.7946 83.6103C44.0722 83.4278 44.2111 83.2156 44.2111 82.9736C44.2111 82.8183 44.1521 82.6869 44.0343 82.5792C43.9204 82.4687 43.7189 82.3732 43.4299 82.2928C43.2316 82.2389 42.7811 82.1432 42.0784 82.0055C41.1729 81.8292 40.5376 81.6125 40.1727 81.3552C39.6587 80.9937 39.4018 80.5531 39.4018 80.0335C39.4018 79.6991 39.5216 79.3869 39.7613 79.0968C40.005 78.8038 40.3532 78.5811 40.806 78.4287C41.2621 78.2757 41.8118 78.1992 42.455 78.1992C43.5039 78.1992 44.2927 78.3802 44.8214 78.7423C45.354 79.1038 45.6337 79.5864 45.6603 80.1899L43.9714 80.2485C43.8994 79.9108 43.7436 79.6688 43.5039 79.5226C43.2681 79.373 42.9125 79.2982 42.4371 79.2982C41.9464 79.2982 41.5622 79.3775 41.2845 79.5362C41.106 79.6376 41.0168 79.7736 41.0168 79.9442C41.0168 80.0989 41.1003 80.2318 41.2675 80.3429C41.4806 80.4828 41.9979 80.629 42.8196 80.7815C43.6413 80.9345 44.2476 81.0931 44.6386 81.2575C45.0347 81.4184 45.343 81.6408 45.5634 81.9247C45.7878 82.2058 45.9 82.554 45.9 82.9694C45.9 83.3456 45.7668 83.6981 45.5005 84.0268C45.2342 84.3554 44.8576 84.6005 44.3709 84.762C43.8841 84.9207 43.2778 85 42.5519 85C41.4939 85 40.6816 84.8088 40.1149 84.4263C39.5482 84.0409 39.2099 83.4805 39.1 82.745ZM78.2 45.9V39.1H84.83V40.2501H80.0054V41.758H84.4934V42.9038H80.0054V44.7542H85V45.9H78.2ZM1.2376 45.9L0 39.1H1.071L1.85215 43.7708L2.79905 39.1H4.04345L4.9521 43.8498L5.746 39.1H6.8L5.542 45.9H4.4319L3.4 40.8162L2.3715 45.8992L1.2376 45.9Z" fill="#EC8536"/>
</g>
<path d="M106.818 54V30.7273H114.955C116.576 30.7273 117.913 31.0076 118.966 31.5682C120.019 32.1212 120.803 32.8674 121.318 33.8068C121.833 34.7386 122.091 35.7727 122.091 36.9091C122.091 37.9091 121.913 38.7348 121.557 39.3864C121.208 40.0379 120.746 40.553 120.17 40.9318C119.602 41.3106 118.985 41.5909 118.318 41.7727V42C119.03 42.0455 119.746 42.2955 120.466 42.75C121.186 43.2045 121.788 43.8561 122.273 44.7045C122.758 45.553 123 46.5909 123 47.8182C123 48.9848 122.735 50.0341 122.205 50.9659C121.674 51.8977 120.837 52.6364 119.693 53.1818C118.549 53.7273 117.061 54 115.227 54H106.818ZM109.636 51.5H115.227C117.068 51.5 118.375 51.1439 119.148 50.4318C119.928 49.7121 120.318 48.8409 120.318 47.8182C120.318 47.0303 120.117 46.303 119.716 45.6364C119.314 44.9621 118.742 44.4242 118 44.0227C117.258 43.6136 116.379 43.4091 115.364 43.4091H109.636V51.5ZM109.636 40.9545H114.864C115.712 40.9545 116.477 40.7879 117.159 40.4545C117.848 40.1212 118.394 39.6515 118.795 39.0455C119.205 38.4394 119.409 37.7273 119.409 36.9091C119.409 35.8864 119.053 35.0189 118.341 34.3068C117.629 33.5871 116.5 33.2273 114.955 33.2273H109.636V40.9545ZM127.631 54V30.7273H130.449V51.5H141.267V54H127.631ZM164.361 42.3636C164.361 44.8182 163.918 46.9394 163.031 48.7273C162.145 50.5152 160.929 51.8939 159.384 52.8636C157.838 53.8333 156.073 54.3182 154.088 54.3182C152.103 54.3182 150.338 53.8333 148.793 52.8636C147.247 51.8939 146.031 50.5152 145.145 48.7273C144.259 46.9394 143.815 44.8182 143.815 42.3636C143.815 39.9091 144.259 37.7879 145.145 36C146.031 34.2121 147.247 32.8333 148.793 31.8636C150.338 30.8939 152.103 30.4091 154.088 30.4091C156.073 30.4091 157.838 30.8939 159.384 31.8636C160.929 32.8333 162.145 34.2121 163.031 36C163.918 37.7879 164.361 39.9091 164.361 42.3636ZM161.634 42.3636C161.634 40.3485 161.296 38.6477 160.622 37.2614C159.955 35.875 159.05 34.8258 157.906 34.1136C156.77 33.4015 155.497 33.0455 154.088 33.0455C152.679 33.0455 151.402 33.4015 150.259 34.1136C149.122 34.8258 148.217 35.875 147.543 37.2614C146.876 38.6477 146.543 40.3485 146.543 42.3636C146.543 44.3788 146.876 46.0795 147.543 47.4659C148.217 48.8523 149.122 49.9015 150.259 50.6136C151.402 51.3258 152.679 51.6818 154.088 51.6818C155.497 51.6818 156.77 51.3258 157.906 50.6136C159.05 49.9015 159.955 48.8523 160.622 47.4659C161.296 46.0795 161.634 44.3788 161.634 42.3636ZM185.009 38C184.759 37.2348 184.429 36.5492 184.02 35.9432C183.618 35.3295 183.137 34.8068 182.577 34.375C182.024 33.9432 181.395 33.6136 180.69 33.3864C179.986 33.1591 179.213 33.0455 178.372 33.0455C176.993 33.0455 175.74 33.4015 174.611 34.1136C173.482 34.8258 172.584 35.875 171.918 37.2614C171.251 38.6477 170.918 40.3485 170.918 42.3636C170.918 44.3788 171.255 46.0795 171.929 47.4659C172.603 48.8523 173.516 49.9015 174.668 50.6136C175.819 51.3258 177.115 51.6818 178.554 51.6818C179.887 51.6818 181.062 51.3977 182.077 50.8295C183.099 50.2538 183.895 49.4432 184.463 48.3977C185.039 47.3447 185.327 46.1061 185.327 44.6818L186.19 44.8636H179.19V42.3636H188.054V44.8636C188.054 46.7803 187.645 48.447 186.827 49.8636C186.016 51.2803 184.895 52.3788 183.463 53.1591C182.039 53.9318 180.402 54.3182 178.554 54.3182C176.493 54.3182 174.683 53.8333 173.122 52.8636C171.569 51.8939 170.357 50.5152 169.486 48.7273C168.622 46.9394 168.19 44.8182 168.19 42.3636C168.19 40.5227 168.437 38.8674 168.929 37.3977C169.429 35.9205 170.134 34.6629 171.043 33.625C171.952 32.5871 173.027 31.7917 174.27 31.2386C175.512 30.6856 176.88 30.4091 178.372 30.4091C179.599 30.4091 180.743 30.5947 181.804 30.9659C182.872 31.3295 183.823 31.8485 184.656 32.5227C185.497 33.1894 186.198 33.9886 186.759 34.9205C187.319 35.8447 187.705 36.8712 187.918 38H185.009ZM209.062 54H201.881V30.7273H209.381C211.638 30.7273 213.57 31.1932 215.176 32.125C216.782 33.0492 218.013 34.3788 218.869 36.1136C219.725 37.8409 220.153 39.9091 220.153 42.3182C220.153 44.7424 219.722 46.8295 218.858 48.5795C217.994 50.322 216.737 51.6629 215.085 52.6023C213.434 53.5341 211.426 54 209.062 54ZM204.699 51.5H208.881C210.805 51.5 212.4 51.1288 213.665 50.3864C214.93 49.6439 215.873 48.5871 216.494 47.2159C217.116 45.8447 217.426 44.2121 217.426 42.3182C217.426 40.4394 217.119 38.822 216.506 37.4659C215.892 36.1023 214.975 35.0568 213.756 34.3295C212.536 33.5947 211.017 33.2273 209.199 33.2273H204.699V51.5ZM224.881 54V30.7273H238.926V33.2273H227.699V41.0909H238.199V43.5909H227.699V51.5H239.108V54H224.881ZM256.415 30.7273L262.04 48.4091H262.256L267.892 30.7273H273.347L265.324 54H258.983L250.949 30.7273H256.415ZM281.068 30.7273V54H276.148V30.7273H281.068ZM289.128 54H283.855L291.889 30.7273H298.23L306.253 54H300.98L295.151 36.0455H294.969L289.128 54ZM288.798 44.8523H301.253V48.6932H288.798V44.8523ZM323.392 38.25C323.233 37.697 323.009 37.2083 322.722 36.7841C322.434 36.3523 322.081 35.9886 321.665 35.6932C321.256 35.3902 320.786 35.1591 320.256 35C319.733 34.8409 319.153 34.7614 318.517 34.7614C317.328 34.7614 316.282 35.0568 315.381 35.6477C314.487 36.2386 313.79 37.0985 313.29 38.2273C312.79 39.3485 312.54 40.7197 312.54 42.3409C312.54 43.9621 312.786 45.3409 313.278 46.4773C313.771 47.6136 314.468 48.4811 315.369 49.0795C316.271 49.6705 317.335 49.9659 318.562 49.9659C319.676 49.9659 320.627 49.7689 321.415 49.375C322.21 48.9735 322.816 48.4091 323.233 47.6818C323.657 46.9545 323.869 46.0947 323.869 45.1023L324.869 45.25H318.869V41.5455H328.608V44.4773C328.608 46.5227 328.176 48.2803 327.312 49.75C326.449 51.2121 325.259 52.3409 323.744 53.1364C322.229 53.9242 320.494 54.3182 318.54 54.3182C316.358 54.3182 314.441 53.8371 312.79 52.875C311.138 51.9053 309.85 50.5303 308.926 48.75C308.009 46.9621 307.551 44.8409 307.551 42.3864C307.551 40.5 307.824 38.8182 308.369 37.3409C308.922 35.8561 309.695 34.5985 310.688 33.5682C311.68 32.5379 312.835 31.7538 314.153 31.2159C315.472 30.678 316.9 30.4091 318.438 30.4091C319.756 30.4091 320.983 30.6023 322.119 30.9886C323.256 31.3674 324.263 31.9053 325.142 32.6023C326.028 33.2992 326.752 34.1288 327.312 35.0909C327.873 36.0455 328.233 37.0985 328.392 38.25H323.392ZM332.304 54V30.7273H347.986V34.7841H337.224V40.3295H347.179V44.3864H337.224V49.9432H348.031V54H332.304ZM371.364 30.7273V54H367.114L356.989 39.3523H356.818V54H351.898V30.7273H356.216L366.261 45.3636H366.466V30.7273H371.364ZM388.054 37.4205C387.963 36.5038 387.573 35.7917 386.884 35.2841C386.194 34.7765 385.259 34.5227 384.077 34.5227C383.274 34.5227 382.596 34.6364 382.043 34.8636C381.49 35.0833 381.065 35.3902 380.77 35.7841C380.482 36.178 380.338 36.625 380.338 37.125C380.323 37.5417 380.41 37.9053 380.599 38.2159C380.796 38.5265 381.065 38.7955 381.406 39.0227C381.747 39.2424 382.141 39.4356 382.588 39.6023C383.035 39.7614 383.512 39.8977 384.02 40.0114L386.111 40.5114C387.126 40.7386 388.058 41.0417 388.906 41.4205C389.755 41.7992 390.49 42.2652 391.111 42.8182C391.732 43.3712 392.213 44.0227 392.554 44.7727C392.902 45.5227 393.08 46.3826 393.088 47.3523C393.08 48.7765 392.717 50.0114 391.997 51.0568C391.285 52.0947 390.255 52.9015 388.906 53.4773C387.565 54.0455 385.948 54.3295 384.054 54.3295C382.175 54.3295 380.539 54.0417 379.145 53.4659C377.759 52.8902 376.675 52.0379 375.895 50.9091C375.122 49.7727 374.717 48.3674 374.679 46.6932H379.44C379.493 47.4735 379.717 48.125 380.111 48.6477C380.512 49.1629 381.046 49.553 381.713 49.8182C382.387 50.0758 383.149 50.2045 383.997 50.2045C384.83 50.2045 385.554 50.0833 386.168 49.8409C386.789 49.5985 387.27 49.2614 387.611 48.8295C387.952 48.3977 388.122 47.9015 388.122 47.3409C388.122 46.8182 387.967 46.3788 387.656 46.0227C387.353 45.6667 386.906 45.3636 386.315 45.1136C385.732 44.8636 385.016 44.6364 384.168 44.4318L381.634 43.7955C379.671 43.3182 378.122 42.572 376.986 41.5568C375.849 40.5417 375.285 39.1742 375.293 37.4545C375.285 36.0455 375.66 34.8144 376.418 33.7614C377.183 32.7083 378.232 31.8864 379.565 31.2955C380.899 30.7045 382.414 30.4091 384.111 30.4091C385.838 30.4091 387.346 30.7045 388.634 31.2955C389.929 31.8864 390.937 32.7083 391.656 33.7614C392.376 34.8144 392.747 36.0341 392.77 37.4205H388.054Z" fill="white"/>
<defs>
<clipPath id="clip0_8_229">
<rect width="85" height="85" fill="white"/>
</clipPath>
</defs>
</svg>
